<?xml version="1.0" encoding="utf-8"?>
<!-- Generator: Adobe Illustrator 23.0.5, SVG Export Plug-In . SVG Version: 6.00 Build 0)  -->
<svg version="1.1" id="Layer_1" xmlns:svgjs="http://svgjs.com/svgjs"
	 xmlns="http://www.w3.org/2000/svg" xmlns:xlink="http://www.w3.org/1999/xlink" x="0px" y="0px" viewBox="0 0 512 512"
	 style="enable-background:new 0 0 512 512;" xml:space="preserve">
<style type="text/css">
	.st0{stroke:#000000;stroke-width:5;stroke-miterlimit:10;}
</style>
<path class="st0" d="M151.3,117c16.2,0,29.4-13.1,29.4-29.4c0-16.2-13.1-29.4-29.4-29.4c-16.2,0-29.4,13.1-29.4,29.4c0,0,0,0,0,0
	C122,103.8,135.1,117,151.3,117z M151.3,73.5c7.8,0,14.1,6.3,14.1,14.1c0,7.8-6.3,14.1-14.1,14.1c-7.8,0-14.1-6.3-14.1-14.1
	c0,0,0,0,0,0C137.2,79.8,143.5,73.5,151.3,73.5L151.3,73.5z"/>
<path d="M92.9,166.1h116.9c4.2,0,7.6-3.4,7.6-7.6s-3.4-7.6-7.6-7.6l0,0H92.9c-4.2,0-7.6,3.4-7.6,7.6S88.7,166.1,92.9,166.1z"/>
<path d="M92.9,202h74.5c4.2,0,7.6-3.4,7.6-7.6s-3.4-7.6-7.6-7.6H92.9c-4.2,0-7.6,3.4-7.6,7.6S88.7,202,92.9,202z"/>
<path d="M92.9,237.8h74.5c4.2,0,7.6-3.4,7.6-7.6s-3.4-7.6-7.6-7.6H92.9c-4.2,0-7.6,3.4-7.6,7.6S88.7,237.8,92.9,237.8z"/>
<path d="M92.9,273.7h74.5c4.2,0,7.6-3.4,7.6-7.6c0-4.2-3.4-7.6-7.6-7.6H92.9c-4.2,0-7.6,3.4-7.6,7.6
	C85.2,270.3,88.7,273.7,92.9,273.7z"/>
<path d="M92.9,309.5h74.5c4.2,0,7.6-3.4,7.6-7.6c0-4.2-3.4-7.6-7.6-7.6H92.9c-4.2,0-7.6,3.4-7.6,7.6
	C85.2,306.1,88.7,309.5,92.9,309.5z"/>
<path d="M209.8,345.4c4.2,0,7.6-3.4,7.6-7.6c0-4.2-3.4-7.6-7.6-7.6l0,0H92.9c-4.2,0-7.6,3.4-7.6,7.6c0,4.2,3.4,7.6,7.6,7.6H209.8z"
	/>
<path d="M209.8,186.8h-8.4c-4.2,0-7.6,3.4-7.6,7.6s3.4,7.6,7.6,7.6h8.4c4.2,0,7.6-3.4,7.6-7.6S214,186.8,209.8,186.8L209.8,186.8z"
	/>
<path d="M209.8,222.6h-8.4c-4.2,0-7.6,3.4-7.6,7.6s3.4,7.6,7.6,7.6h8.4c4.2,0,7.6-3.4,7.6-7.6S214,222.6,209.8,222.6L209.8,222.6z"
	/>
<path d="M209.8,258.5h-8.4c-4.2,0-7.6,3.4-7.6,7.6c0,4.2,3.4,7.6,7.6,7.6h8.4c4.2,0,7.6-3.4,7.6-7.6
	C217.4,261.9,214,258.5,209.8,258.5L209.8,258.5z"/>
<path d="M209.8,294.3h-8.4c-4.2,0-7.6,3.4-7.6,7.6c0,4.2,3.4,7.6,7.6,7.6h8.4c4.2,0,7.6-3.4,7.6-7.6
	C217.4,297.7,214,294.3,209.8,294.3L209.8,294.3z"/>
<path class="st0" d="M444.7,165.3l-89.1-19.9c-14.9-3.4-30.6,0.2-42.6,9.7l-40,31.4v-71c0-15.3-6.8-29.8-18.7-39.5l-70.7-57.8
	C164.8,3,137.9,3,119.1,18.3L48.4,76.1c-11.9,9.7-18.7,24.2-18.7,39.5v243.1c0,28.1,22.8,50.9,50.9,51h58.3l61.7,78.5
	c8.3,10.7,20.6,17.6,34,19.1c2,0.2,4.1,0.4,6.2,0.4c11.4,0,22.5-3.8,31.4-10.9l191.1-150.3c12.1-9.4,19.2-23.8,19.5-39.1l1.7-91.3
	C484.9,191.8,468.3,170.6,444.7,165.3L444.7,165.3z M44.9,358.7V115.5c0-10.7,4.8-20.9,13.1-27.7L128.7,30
	c13.2-10.7,32.1-10.7,45.3,0l70.7,57.8c8.3,6.8,13.1,17,13.1,27.7v243.1c0,19.7-16,35.7-35.8,35.8h-79.9c0,0-0.1,0-0.1,0H80.6
	C60.9,394.4,44.9,378.4,44.9,358.7L44.9,358.7z M467.6,307c-0.2,10.7-5.2,20.8-13.7,27.4L262.8,484.7c-15.5,12.2-37.9,9.5-50.1-5.9
	c0,0,0-0.1-0.1-0.1l-54.3-69.1h62.4l22.9,29.2c2.6,3.3,7.4,3.9,10.7,1.3c3.3-2.6,3.9-7.4,1.3-10.7l0,0L238,407
	c20.4-6.7,34.3-25.5,35-46.9l0.8,1c2.6,3.3,7.4,3.9,10.7,1.3s3.9-7.4,1.3-10.7l0,0L273,335.6v-33.4l28.9,36.8
	c2.6,3.3,7.4,3.9,10.7,1.3s3.9-7.4,1.3-10.7l-40.9-52v-71.8l49.3-38.8c8.4-6.7,19.4-9.2,29.9-6.8l89.1,19.9
	c16.6,3.7,28.2,18.6,27.9,35.5L467.6,307z"/>
<path class="st0" d="M410.1,262.9c16.2,0,29.4-13.1,29.4-29.4c0-16.2-13.1-29.4-29.4-29.4s-29.4,13.1-29.4,29.4c0,0,0,0,0,0
	C380.8,249.8,393.9,262.9,410.1,262.9z M410.1,219.5c7.8,0,14.1,6.3,14.1,14.1c0,7.8-6.3,14.1-14.1,14.1c-7.8,0-14.1-6.3-14.1-14.1
	c0,0,0,0,0,0C396,225.8,402.3,219.5,410.1,219.5L410.1,219.5z"/>
<path d="M324.2,226.7c-2.6-3.3-7.4-3.9-10.7-1.3c-3.3,2.6-3.9,7.4-1.3,10.7l0,0l72.3,91.9c2.6,3.3,7.4,3.9,10.7,1.3
	c3.3-2.6,3.9-7.4,1.3-10.7L324.2,226.7z"/>
<path d="M296,248.8c-2.6-3.3-7.4-3.9-10.7-1.3c-3.3,2.6-3.9,7.4-1.3,10.7l46.1,58.6c2.6,3.3,7.4,3.9,10.7,1.3s3.9-7.4,1.3-10.7
	L296,248.8z"/>
<path d="M363.1,334.2c-2.6-3.3-7.3-4-10.7-1.4s-4,7.3-1.4,10.7c0,0.1,0.1,0.1,0.1,0.2l5.2,6.6c2.6,3.3,7.3,4,10.7,1.4
	c3.3-2.6,4-7.3,1.4-10.7c0-0.1-0.1-0.1-0.1-0.2L363.1,334.2z"/>
<path d="M334.9,356.3c-2.6-3.3-7.3-4-10.7-1.4c-3.3,2.6-4,7.3-1.4,10.7c0,0.1,0.1,0.1,0.1,0.2l5.2,6.6c2.6,3.3,7.3,4,10.7,1.4
	c3.3-2.6,4-7.3,1.4-10.7c0-0.1-0.1-0.1-0.1-0.2L334.9,356.3z"/>
<path d="M306.7,378.5c-2.7-3.3-7.5-3.7-10.7-1.1c-3.2,2.6-3.7,7.2-1.2,10.5l5.2,6.6c2.5,3.4,7.3,4,10.7,1.5c3.4-2.5,4-7.3,1.5-10.7
	c-0.1-0.1-0.1-0.2-0.2-0.2L306.7,378.5z"/>
<path d="M278.6,400.6c-2.6-3.3-7.4-3.9-10.7-1.3c-3.3,2.6-3.9,7.4-1.3,10.7l5.2,6.6c2.6,3.3,7.3,4,10.7,1.4c3.3-2.6,4-7.3,1.4-10.7
	c0-0.1-0.1-0.1-0.1-0.2L278.6,400.6z"/>
</svg>
